<?xml version="1.0" encoding="UTF-8"?>
<svg xmlns="http://www.w3.org/2000/svg" xmlns:xlink="http://www.w3.org/1999/xlink" version="1.1" id="Layer_1" x="0px" y="0px" viewBox="0 0 24 24" style="enable-background:new 0 0 24 24;" xml:space="preserve">
<g>
	<path style="fill:#303C42;" d="M20.5,9C20.224,9,20,9.224,20,9.5v-2C20,4.468,17.532,2,14.5,2h-4C7.468,2,5,4.468,5,7.5V2.768   l2.777-1.852c0.184-0.122,0.265-0.35,0.201-0.561S7.721,0,7.5,0h-4C3.327,0,3.166,0.09,3.074,0.237   C2.983,0.384,2.975,0.568,3.053,0.723L4,2.618V12.5C4,12.224,3.776,12,3.5,12S3,12.224,3,12.5v1C3,13.776,3.224,14,3.5,14   S4,13.776,4,13.5v4C4,17.776,4.224,18,4.5,18S5,17.776,5,17.5v0.02c0,0.774,0.347,1.489,0.951,1.962   c1.466,1.149,4.336,3.696,4.563,4.133c0.004,0.019,0.016,0.034,0.022,0.052c0.009,0.025,0.018,0.049,0.03,0.072   c0.017,0.03,0.037,0.056,0.06,0.082c0.016,0.018,0.03,0.037,0.048,0.053c0.029,0.025,0.062,0.044,0.096,0.062   c0.018,0.01,0.034,0.022,0.053,0.029C10.878,23.987,10.937,24,11,24c0.004,0,0.008,0,0.013,0h2.975H14   c0.085,0,0.161-0.027,0.232-0.065c0.038-0.018,0.071-0.038,0.102-0.065c0.058-0.052,0.1-0.119,0.129-0.194   c0.002-0.006,0.008-0.008,0.01-0.015c0.241-0.483,3.111-3.03,4.576-4.18c0.605-0.473,0.952-1.188,0.952-1.962v-0.02   c0,0.276,0.224,0.5,0.5,0.5s0.5-0.224,0.5-0.5v-8C21,9.224,20.776,9,20.5,9z"/>
	<polygon style="fill:#FFF59D;" points="5.849,1 4.694,1.77 4.309,1  "/>
	<path style="fill:#424242;" d="M14.384,13.014c-0.216,0.052-0.372,0.239-0.383,0.461l-0.432,8.626   c-0.029,0.294-0.034,0.598-0.045,0.899h-2.05c-0.011-0.302-0.016-0.606-0.045-0.899l-0.432-8.626   c-0.011-0.222-0.167-0.409-0.383-0.461c-1.406-0.337-3.797-1.085-4.616-1.74v-0.628c1.184,0.288,3.844,0.855,6.5,0.855h1   c2.493,0,4.502-0.499,5.5-0.804v0.578C18.181,11.929,15.79,12.677,14.384,13.014z"/>
	<path style="fill:#424242;" d="M17.326,13.181c-0.823,1.064-1.773,2.506-2.521,4.241l0.176-3.526   C15.488,13.764,16.404,13.512,17.326,13.181z"/>
	<path style="fill:#424242;" d="M10.195,17.422c-0.748-1.735-1.698-3.177-2.521-4.241c0.922,0.331,1.838,0.583,2.346,0.715   L10.195,17.422z"/>
	<path style="fill:#9CCC65;" d="M10.5,3h4C16.981,3,19,5.019,19,7.5v2.145c-0.767,0.253-2.868,0.855-5.5,0.855h-1   c-2.714,0-5.52-0.64-6.5-0.886V7.5C6,5.019,8.019,3,10.5,3z"/>
	<path style="fill:#9CCC65;" d="M6.567,18.694C6.207,18.412,6,17.983,6,17.52v-4.773c1.354,1.529,3.923,4.951,4.413,9.309   C8.973,20.631,6.601,18.72,6.567,18.694z"/>
	<path style="fill:#9CCC65;" d="M18.432,18.694c-0.034,0.026-2.405,1.937-3.845,3.361c0.49-4.358,3.059-7.78,4.413-9.309v4.773   C19,17.983,18.793,18.412,18.432,18.694z"/>
	<path style="fill:#424242;" d="M10.5,3h4C16.981,3,19,5.019,19,7.5v2.145c-0.767,0.253-2.868,0.855-5.5,0.855h-1   c-2.714,0-5.52-0.64-6.5-0.886V7.5C6,5.019,8.019,3,10.5,3z"/>
	<path style="fill:#424242;" d="M6.567,18.694C6.207,18.412,6,17.983,6,17.52v-4.773c1.354,1.529,3.923,4.951,4.413,9.309   C8.973,20.631,6.601,18.72,6.567,18.694z"/>
	<path style="fill:#424242;" d="M18.432,18.694c-0.034,0.026-2.405,1.937-3.845,3.361c0.49-4.358,3.059-7.78,4.413-9.309v4.773   C19,17.983,18.793,18.412,18.432,18.694z"/>
	<path style="opacity:0.56;fill:#9CCC65;enable-background:new    ;" d="M10.5,3h4C16.981,3,19,5.019,19,7.5v2.145   c-0.767,0.253-2.868,0.855-5.5,0.855h-1c-2.714,0-5.52-0.64-6.5-0.886V7.5C6,5.019,8.019,3,10.5,3z"/>
	<path style="opacity:0.2;fill:#FFFFFF;enable-background:new    ;" d="M14.5,3h-4C8.019,3,6,5.019,6,7.5v0.75   c0-2.481,2.019-4.5,4.5-4.5h4c2.481,0,4.5,2.019,4.5,4.5V7.5C19,5.019,16.981,3,14.5,3z"/>
	<path style="opacity:0.56;fill:#9CCC65;enable-background:new    ;" d="M6.567,18.694C6.207,18.412,6,17.983,6,17.52v-4.773   c1.354,1.529,3.923,4.951,4.413,9.309C8.973,20.631,6.601,18.72,6.567,18.694z"/>
	<path style="opacity:0.56;fill:#9CCC65;enable-background:new    ;" d="M18.432,18.694c-0.034,0.026-2.405,1.937-3.845,3.361   c0.49-4.358,3.059-7.78,4.413-9.309v4.773C19,17.983,18.793,18.412,18.432,18.694z"/>
	
		<linearGradient id="SVGID_1_" gradientUnits="userSpaceOnUse" x1="6.7325" y1="5.1248" x2="9.4302" y2="7.8226" gradientTransform="matrix(1 0 0 -1 0 24)">
		<stop offset="0" style="stop-color:#000000;stop-opacity:0"/>
		<stop offset="1" style="stop-color:#000000;stop-opacity:0.3"/>
	</linearGradient>
	<path style="fill:url(#SVGID_1_);" d="M6.567,18.694C6.207,18.412,6,17.983,6,17.52v-4.773c1.354,1.529,3.923,4.951,4.413,9.309   C8.973,20.631,6.601,18.72,6.567,18.694z"/>
	
		<linearGradient id="SVGID_2_" gradientUnits="userSpaceOnUse" x1="15.5692" y1="7.8235" x2="18.267" y2="5.1257" gradientTransform="matrix(1 0 0 -1 0 24)">
		<stop offset="0" style="stop-color:#000000;stop-opacity:0.3"/>
		<stop offset="1" style="stop-color:#000000;stop-opacity:0"/>
	</linearGradient>
	<path style="fill:url(#SVGID_2_);" d="M18.432,18.694c-0.034,0.026-2.405,1.937-3.845,3.361c0.49-4.358,3.059-7.78,4.413-9.309   v4.773C19,17.983,18.793,18.412,18.432,18.694z"/>
	<path style="opacity:0.78;fill:#E53935;enable-background:new    ;" d="M14.384,13.014c-0.216,0.052-0.372,0.239-0.383,0.461   l-0.432,8.626c-0.029,0.294-0.034,0.598-0.045,0.899h-2.05c-0.011-0.302-0.016-0.606-0.045-0.899l-0.432-8.626   c-0.011-0.222-0.167-0.409-0.383-0.461c-1.406-0.337-3.797-1.085-4.616-1.74v-0.628c1.184,0.288,3.844,0.855,6.5,0.855h1   c2.493,0,4.502-0.499,5.5-0.804v0.578C18.181,11.929,15.79,12.677,14.384,13.014z"/>
	<path style="opacity:0.2;fill:#FFFFFF;enable-background:new    ;" d="M13.5,11.5h-1c-2.656,0-5.316-0.566-6.5-0.855v0.578   c1.184,0.288,3.844,0.855,6.5,0.855h1c2.492,0,4.5-0.498,5.499-0.804L19,11.273v-0.578C18.002,11.001,15.993,11.5,13.5,11.5z"/>
	<path style="opacity:0.78;fill:#E53935;enable-background:new    ;" d="M17.326,13.181c-0.823,1.064-1.773,2.506-2.521,4.241   l0.176-3.526C15.488,13.764,16.404,13.512,17.326,13.181z"/>
	<path style="opacity:0.78;fill:#E53935;enable-background:new    ;" d="M10.195,17.422c-0.748-1.735-1.698-3.177-2.521-4.241   c0.922,0.331,1.838,0.583,2.346,0.715L10.195,17.422z"/>
	
		<linearGradient id="SVGID_3_" gradientUnits="userSpaceOnUse" x1="0.0098" y1="17.2007" x2="21.3923" y2="7.2299" gradientTransform="matrix(1 0 0 -1 0 24)">
		<stop offset="0" style="stop-color:#FFFFFF;stop-opacity:0.2"/>
		<stop offset="1" style="stop-color:#FFFFFF;stop-opacity:0"/>
	</linearGradient>
	<path style="fill:url(#SVGID_3_);" d="M20.5,9C20.224,9,20,9.224,20,9.5v-2C20,4.468,17.532,2,14.5,2h-4C7.468,2,5,4.468,5,7.5   V2.768l2.777-1.852c0.184-0.122,0.265-0.35,0.201-0.561S7.721,0,7.5,0h-4C3.327,0,3.166,0.09,3.074,0.237   C2.983,0.384,2.975,0.568,3.053,0.723L4,2.618V12.5C4,12.224,3.776,12,3.5,12S3,12.224,3,12.5v1C3,13.776,3.224,14,3.5,14   S4,13.776,4,13.5v4C4,17.776,4.224,18,4.5,18S5,17.776,5,17.5v0.02c0,0.774,0.347,1.489,0.951,1.962   c1.466,1.149,4.336,3.696,4.563,4.133c0.004,0.019,0.016,0.034,0.022,0.052c0.009,0.025,0.018,0.049,0.03,0.072   c0.017,0.03,0.037,0.056,0.06,0.082c0.016,0.018,0.03,0.037,0.048,0.053c0.029,0.025,0.062,0.044,0.096,0.062   c0.018,0.01,0.034,0.022,0.053,0.029C10.878,23.987,10.937,24,11,24c0.004,0,0.008,0,0.013,0h2.975H14   c0.085,0,0.161-0.027,0.232-0.065c0.038-0.018,0.071-0.038,0.102-0.065c0.058-0.052,0.1-0.119,0.129-0.194   c0.002-0.006,0.008-0.008,0.01-0.015c0.241-0.483,3.111-3.03,4.576-4.18c0.605-0.473,0.952-1.188,0.952-1.962v-0.02   c0,0.276,0.224,0.5,0.5,0.5s0.5-0.224,0.5-0.5v-8C21,9.224,20.776,9,20.5,9z"/>
</g>

	<metadata>
		<rdf:RDF xmlns:rdf="http://www.w3.org/1999/02/22-rdf-syntax-ns#" xmlns:rdfs="http://www.w3.org/2000/01/rdf-schema#" xmlns:dc="http://purl.org/dc/elements/1.1/">
			<rdf:Description about="https://iconscout.com/legal#licenses" dc:title="people; avatar; head; star wars; boba; fet" dc:description="people; avatar; head; star wars; boba; fet" dc:publisher="Iconscout" dc:date="2017-03-22" dc:format="image/svg+xml" dc:language="en">
				<dc:creator>
					<rdf:Bag>
						<rdf:li>Alpár - Etele Méder</rdf:li>
					</rdf:Bag>
				</dc:creator>
			</rdf:Description>
		</rdf:RDF>
    </metadata></svg>
