<?xml version="1.0" encoding="UTF-8"?>
<svg xmlns="http://www.w3.org/2000/svg" xmlns:xlink="http://www.w3.org/1999/xlink" version="1.1" id="Layer_1" x="0px" y="0px" viewBox="0 0 24 24" style="enable-background:new 0 0 24 24;" xml:space="preserve">
<g>
	<path style="fill:#303C42;" d="M12,0C6.393,0,2,4.612,2,10.5C2,18.575,6.019,24,12,24s10-5.425,10-13.5C22,4.612,17.607,0,12,0z"/>
	<path style="fill:#FAFAFA;" d="M12,23c-5.383,0-9-5.023-9-12.5c0-3.364,1.578-6.264,4.011-7.947C7.038,2.803,7.243,3,7.5,3   C7.776,3,8,2.776,8,2.5c0-0.177-0.097-0.325-0.236-0.414C9.02,1.393,10.458,1,12,1s2.979,0.393,4.236,1.086   C16.097,2.175,16,2.323,16,2.5C16,2.776,16.224,3,16.5,3c0.257,0,0.462-0.197,0.489-0.447C19.422,4.236,21,7.136,21,10.5   C21,17.977,17.383,23,12,23z"/>
	<path style="fill:#303C42;" d="M8,10c-1.183,0-2.5,0.616-2.5,1.5C5.5,12.641,5.934,14,8,14c1.207,0,3-1.639,3-2.5   C11,10.072,8.501,10,8,10z"/>
	<path style="fill:#5C6671;" d="M8,13c-0.779,0-1.5-0.182-1.504-1.47C6.561,11.368,7.195,11,8,11c1.03,0.001,2,0.283,2.003,0.463   C9.914,11.818,8.718,13,8,13z"/>
	<path style="fill:#303C42;" d="M16,10c-0.501,0-3,0.072-3,1.5c0,0.861,1.793,2.5,3,2.5c2.066,0,2.5-1.359,2.5-2.5   C18.5,10.616,17.183,10,16,10z"/>
	<path style="fill:#5C6671;" d="M16,13c-0.718,0-1.914-1.182-2-1.5c0-0.217,0.97-0.499,2-0.5c0.805,0,1.439,0.368,1.5,0.5   C17.5,12.818,16.779,13,16,13z"/>
	<path style="fill:#D32F2F;" d="M8.362,8.981l3.5,1C11.907,9.994,11.954,10,12,10s0.093-0.006,0.138-0.019l3.5-1   c0.239-0.069,0.392-0.303,0.357-0.55S15.749,8,15.5,8h-7C8.251,8,8.039,8.184,8.005,8.431S8.123,8.912,8.362,8.981z"/>
	<path style="fill:#D32F2F;" d="M8.854,15.146c-0.195-0.195-0.512-0.195-0.707,0l-2.5,2.5c-0.195,0.195-0.195,0.512,0,0.707   C5.744,18.451,5.872,18.5,6,18.5s0.256-0.049,0.354-0.146l2.5-2.5C9.049,15.658,9.049,15.342,8.854,15.146z"/>
	<path style="fill:#D32F2F;" d="M15.854,15.146c-0.195-0.195-0.512-0.195-0.707,0s-0.195,0.512,0,0.707l2.5,2.5   c0.098,0.098,0.226,0.146,0.354,0.146s0.256-0.049,0.354-0.146c0.195-0.195,0.195-0.512,0-0.707L15.854,15.146z"/>
	<circle style="fill:#303C42;" cx="9.5" cy="17.5" r="0.5"/>
	<circle style="fill:#303C42;" cx="12" cy="15" r="0.5"/>
	<circle style="fill:#303C42;" cx="9.5" cy="19.5" r="0.5"/>
	<circle style="fill:#303C42;" cx="9.5" cy="21.5" r="0.5"/>
	<circle style="fill:#303C42;" cx="14.5" cy="17.5" r="0.5"/>
	<circle style="fill:#303C42;" cx="14.5" cy="19.5" r="0.5"/>
	<circle style="fill:#303C42;" cx="14.5" cy="21.5" r="0.5"/>
	<circle style="fill:#303C42;" cx="4.5" cy="14.5" r="0.5"/>
	<circle style="fill:#303C42;" cx="19.5" cy="14.5" r="0.5"/>
	<circle style="fill:#303C42;" cx="4.5" cy="9.5" r="0.5"/>
	<circle style="fill:#303C42;" cx="19.5" cy="9.5" r="0.5"/>
	<circle style="fill:#303C42;" cx="7.5" cy="6.5" r="0.5"/>
	<circle style="fill:#303C42;" cx="10.5" cy="6.5" r="0.5"/>
	<circle style="fill:#303C42;" cx="13.5" cy="6.5" r="0.5"/>
	<circle style="fill:#303C42;" cx="7.5" cy="4.5" r="0.5"/>
	<circle style="fill:#303C42;" cx="16.5" cy="6.5" r="0.5"/>
	<circle style="fill:#303C42;" cx="16.5" cy="4.5" r="0.5"/>
	
		<linearGradient id="SVGID_1_" gradientUnits="userSpaceOnUse" x1="2.2663" y1="16.5798" x2="21.3473" y2="7.6821" gradientTransform="matrix(1 0 0 -1 0 24)">
		<stop offset="0" style="stop-color:#FFFFFF;stop-opacity:0.2"/>
		<stop offset="1" style="stop-color:#FFFFFF;stop-opacity:0"/>
	</linearGradient>
	<path style="fill:url(#SVGID_1_);" d="M12,0C6.393,0,2,4.612,2,10.5C2,18.575,6.019,24,12,24s10-5.425,10-13.5   C22,4.612,17.607,0,12,0z"/>
</g>

	<metadata>
		<rdf:RDF xmlns:rdf="http://www.w3.org/1999/02/22-rdf-syntax-ns#" xmlns:rdfs="http://www.w3.org/2000/01/rdf-schema#" xmlns:dc="http://purl.org/dc/elements/1.1/">
			<rdf:Description about="https://iconscout.com/legal#licenses" dc:title="people; avatar; head; jason; mask; hokey; horror; movie" dc:description="people; avatar; head; jason; mask; hokey; horror; movie" dc:publisher="Iconscout" dc:date="2017-03-22" dc:format="image/svg+xml" dc:language="en">
				<dc:creator>
					<rdf:Bag>
						<rdf:li>Alpár - Etele Méder</rdf:li>
					</rdf:Bag>
				</dc:creator>
			</rdf:Description>
		</rdf:RDF>
    </metadata></svg>
